<svg xmlns="http://www.w3.org/2000/svg" width="1920" height="1080" viewBox="0 0 1920 1080" role="img" aria-labelledby="title desc">
  <title id="title">RiskHub clean landscape infographic frame</title>
  <desc id="desc">Clean landscape infographic frame with placeholders for a designer to fill in content, screenshots, process, and call to action.</desc>
  <defs>
    <linearGradient id="bg" x1="0" y1="0" x2="1" y2="1">
      <stop offset="0%" stop-color="#07101d"/>
      <stop offset="52%" stop-color="#0b1326"/>
      <stop offset="100%" stop-color="#121c2f"/>
    </linearGradient>
    <linearGradient id="hero" x1="0" y1="0" x2="1" y2="0">
      <stop offset="0%" stop-color="#244da0" stop-opacity="0.96"/>
      <stop offset="100%" stop-color="#5e6d91" stop-opacity="0.88"/>
    </linearGradient>
    <linearGradient id="panel" x1="0" y1="0" x2="1" y2="1">
      <stop offset="0%" stop-color="#1b2438"/>
      <stop offset="100%" stop-color="#151d31"/>
    </linearGradient>
    <linearGradient id="accent" x1="0" y1="0" x2="1" y2="1">
      <stop offset="0%" stop-color="#b5c4ff"/>
      <stop offset="100%" stop-color="#2f6ef6"/>
    </linearGradient>
    <linearGradient id="warm" x1="0" y1="0" x2="1" y2="0">
      <stop offset="0%" stop-color="#ffb59a"/>
      <stop offset="100%" stop-color="#ffb4ab"/>
    </linearGradient>
    <filter id="softShadow" x="-20%" y="-20%" width="140%" height="140%">
      <feDropShadow dx="0" dy="16" stdDeviation="24" flood-color="#030815" flood-opacity="0.48"/>
    </filter>
    <style>
      .eyebrow { fill: #90a7e7; font: 600 17px 'Inter', 'Segoe UI', sans-serif; letter-spacing: 0.22em; text-transform: uppercase; }
      .heroTitle { fill: #f3f6ff; font: 800 62px 'Inter', 'Segoe UI', sans-serif; }
      .sectionTitle { fill: #eff4ff; font: 700 28px 'Inter', 'Segoe UI', sans-serif; }
      .label { fill: #9fb5ea; font: 600 12px 'Inter', 'Segoe UI', sans-serif; letter-spacing: 0.16em; text-transform: uppercase; }
      .cta { fill: #08111f; font: 700 20px 'Inter', 'Segoe UI', sans-serif; }
    </style>
  </defs>

  <rect width="1920" height="1080" fill="url(#bg)"/>
  <circle cx="170" cy="170" r="260" fill="#14315f" opacity="0.18"/>
  <circle cx="1660" cy="160" r="260" fill="#153b72" opacity="0.14"/>
  <circle cx="1730" cy="950" r="260" fill="#6e2911" opacity="0.08"/>
  <rect x="40" y="32" width="1840" height="1016" rx="34" fill="rgba(255,255,255,0.02)" stroke="rgba(255,255,255,0.06)"/>

  <g filter="url(#softShadow)">
    <rect x="72" y="56" width="1776" height="202" rx="28" fill="url(#panel)" stroke="rgba(181,196,255,0.16)"/>
    <rect x="72" y="56" width="1776" height="202" rx="28" fill="url(#hero)"/>
    <text x="116" y="106" class="eyebrow">Hero Area</text>
    <text x="116" y="172" class="heroTitle">Project Name</text>
    <rect x="116" y="200" width="580" height="16" rx="8" fill="rgba(255,255,255,0.22)"/>
    <rect x="116" y="230" width="672" height="10" rx="5" fill="rgba(255,255,255,0.12)"/>

    <rect x="1510" y="86" width="274" height="144" rx="22" fill="#0b1326" stroke="rgba(255,255,255,0.08)"/>
    <text x="1540" y="122" class="label">Highlight Box</text>
    <rect x="1540" y="146" width="146" height="12" rx="6" fill="rgba(181,196,255,0.24)"/>
    <rect x="1540" y="174" width="118" height="12" rx="6" fill="rgba(255,255,255,0.12)"/>
    <rect x="1540" y="202" width="138" height="12" rx="6" fill="rgba(255,181,154,0.20)"/>
  </g>

  <g filter="url(#softShadow)">
    <rect x="72" y="292" width="560" height="172" rx="24" fill="url(#panel)" stroke="rgba(255,255,255,0.08)"/>
    <text x="104" y="338" class="sectionTitle">01. Section Title</text>
    <rect x="104" y="366" width="212" height="12" rx="6" fill="rgba(181,196,255,0.16)"/>
    <circle cx="114" cy="404" r="5" fill="#ffb59a"/>
    <rect x="136" y="398" width="316" height="10" rx="5" fill="rgba(255,255,255,0.14)"/>
    <circle cx="114" cy="440" r="5" fill="#ffb59a"/>
    <rect x="136" y="434" width="284" height="10" rx="5" fill="rgba(255,255,255,0.11)"/>
  </g>

  <g filter="url(#softShadow)">
    <rect x="656" y="292" width="672" height="172" rx="24" fill="url(#panel)" stroke="rgba(255,255,255,0.08)"/>
    <text x="688" y="338" class="sectionTitle">02. Section Title</text>
    <rect x="688" y="366" width="608" height="32" rx="12" fill="rgba(26,86,219,0.12)" stroke="rgba(181,196,255,0.12)"/>
    <rect x="708" y="377" width="320" height="10" rx="5" fill="rgba(255,255,255,0.18)"/>
    <rect x="688" y="410" width="608" height="32" rx="12" fill="rgba(26,86,219,0.10)" stroke="rgba(181,196,255,0.10)"/>
    <rect x="708" y="421" width="360" height="10" rx="5" fill="rgba(255,255,255,0.14)"/>
  </g>

  <text x="72" y="516" class="sectionTitle">03. Feature Grid / Screenshots</text>

  <g filter="url(#softShadow)">
    <rect x="72" y="538" width="608" height="176" rx="24" fill="url(#panel)" stroke="rgba(255,255,255,0.08)"/>
    <text x="102" y="578" class="label">Card 01</text>
    <rect x="102" y="600" width="186" height="12" rx="6" fill="rgba(255,255,255,0.18)"/>
    <rect x="102" y="626" width="244" height="10" rx="5" fill="rgba(255,255,255,0.10)"/>
    <rect x="102" y="652" width="548" height="44" rx="14" fill="#0b1326" stroke="rgba(255,255,255,0.08)"/>
    <rect x="124" y="668" width="164" height="10" rx="5" fill="rgba(181,196,255,0.22)"/>
    <rect x="502" y="664" width="96" height="22" rx="11" fill="rgba(47,110,246,0.24)"/>
  </g>

  <g filter="url(#softShadow)">
    <rect x="720" y="538" width="608" height="176" rx="24" fill="url(#panel)" stroke="rgba(255,255,255,0.08)"/>
    <text x="750" y="578" class="label">Card 02</text>
    <rect x="750" y="600" width="186" height="12" rx="6" fill="rgba(255,255,255,0.18)"/>
    <rect x="750" y="626" width="244" height="10" rx="5" fill="rgba(255,255,255,0.10)"/>
    <rect x="750" y="652" width="548" height="44" rx="14" fill="#0b1326" stroke="rgba(255,255,255,0.08)"/>
    <circle cx="792" cy="674" r="21" fill="none" stroke="url(#accent)" stroke-width="6"/>
    <rect x="838" y="666" width="116" height="10" rx="5" fill="rgba(255,255,255,0.14)"/>
    <rect x="1144" y="664" width="46" height="16" rx="8" fill="rgba(168,239,180,0.18)"/>
  </g>

  <g filter="url(#softShadow)">
    <rect x="72" y="738" width="608" height="176" rx="24" fill="url(#panel)" stroke="rgba(255,255,255,0.08)"/>
    <text x="102" y="778" class="label">Card 03</text>
    <rect x="102" y="800" width="186" height="12" rx="6" fill="rgba(255,255,255,0.18)"/>
    <rect x="102" y="826" width="244" height="10" rx="5" fill="rgba(255,255,255,0.10)"/>
    <rect x="102" y="852" width="548" height="44" rx="14" fill="#0b1326" stroke="rgba(255,255,255,0.08)"/>
    <rect x="124" y="866" width="8" height="26" rx="4" fill="url(#warm)"/>
    <rect x="148" y="868" width="182" height="10" rx="5" fill="rgba(255,255,255,0.14)"/>
    <rect x="544" y="866" width="56" height="16" rx="8" fill="rgba(255,181,154,0.18)"/>
  </g>

  <g filter="url(#softShadow)">
    <rect x="720" y="738" width="608" height="176" rx="24" fill="url(#panel)" stroke="rgba(255,255,255,0.08)"/>
    <text x="750" y="778" class="label">Card 04 / Screenshot</text>
    <rect x="750" y="800" width="216" height="12" rx="6" fill="rgba(255,255,255,0.18)"/>
    <rect x="750" y="826" width="244" height="10" rx="5" fill="rgba(255,255,255,0.10)"/>
    <rect x="750" y="852" width="548" height="44" rx="14" fill="#091122" stroke="rgba(255,255,255,0.08)"/>
    <circle cx="930" cy="874" r="24" fill="#31394d" stroke="#ffb4ab" stroke-width="4"/>
    <circle cx="870" cy="860" r="13" fill="#31394d" stroke="#ffb59a" stroke-width="3"/>
    <circle cx="994" cy="858" r="12" fill="#31394d" stroke="#ffb59a" stroke-width="3"/>
    <circle cx="990" cy="892" r="12" fill="#31394d" stroke="#ffb59a" stroke-width="3"/>
    <line x1="883" y1="864" x2="908" y2="870" stroke="#ffb4ab" stroke-width="4" stroke-linecap="round"/>
    <line x1="952" y1="866" x2="980" y2="862" stroke="#ffb4ab" stroke-width="4" stroke-linecap="round"/>
    <line x1="950" y1="880" x2="978" y2="888" stroke="#ffb4ab" stroke-width="4" stroke-linecap="round"/>
  </g>

  <g filter="url(#softShadow)">
    <rect x="1368" y="292" width="480" height="300" rx="24" fill="url(#panel)" stroke="rgba(255,255,255,0.08)"/>
    <text x="1400" y="338" class="sectionTitle">04. Workflow / Process</text>
    <circle cx="1436" cy="416" r="20" fill="url(#accent)"/>
    <circle cx="1544" cy="416" r="20" fill="url(#accent)"/>
    <circle cx="1652" cy="416" r="20" fill="url(#accent)"/>
    <circle cx="1760" cy="416" r="20" fill="url(#accent)"/>
    <text x="1429" y="423" class="cta">1</text>
    <text x="1537" y="423" class="cta">2</text>
    <text x="1645" y="423" class="cta">3</text>
    <text x="1753" y="423" class="cta">4</text>
    <line x1="1458" y1="416" x2="1522" y2="416" stroke="rgba(181,196,255,0.40)" stroke-width="4" stroke-linecap="round"/>
    <line x1="1566" y1="416" x2="1630" y2="416" stroke="rgba(181,196,255,0.40)" stroke-width="4" stroke-linecap="round"/>
    <line x1="1674" y1="416" x2="1738" y2="416" stroke="rgba(181,196,255,0.40)" stroke-width="4" stroke-linecap="round"/>
    <rect x="1400" y="372" width="88" height="10" rx="5" fill="rgba(255,255,255,0.16)"/>
    <rect x="1508" y="372" width="88" height="10" rx="5" fill="rgba(255,255,255,0.16)"/>
    <rect x="1616" y="372" width="88" height="10" rx="5" fill="rgba(255,255,255,0.16)"/>
    <rect x="1724" y="372" width="88" height="10" rx="5" fill="rgba(255,255,255,0.16)"/>
    <rect x="1400" y="464" width="96" height="10" rx="5" fill="rgba(255,255,255,0.10)"/>
    <rect x="1508" y="464" width="112" height="10" rx="5" fill="rgba(255,255,255,0.10)"/>
    <rect x="1616" y="464" width="128" height="10" rx="5" fill="rgba(255,255,255,0.10)"/>
    <rect x="1724" y="464" width="108" height="10" rx="5" fill="rgba(255,255,255,0.10)"/>
  </g>

  <g filter="url(#softShadow)">
    <rect x="1368" y="620" width="480" height="294" rx="24" fill="url(#panel)" stroke="rgba(255,255,255,0.08)"/>
    <text x="1400" y="666" class="sectionTitle">05. Value / CTA</text>
    <rect x="1400" y="702" width="184" height="12" rx="6" fill="rgba(255,255,255,0.18)"/>
    <circle cx="1410" cy="744" r="5" fill="#a8efb4"/>
    <rect x="1432" y="738" width="216" height="10" rx="5" fill="rgba(255,255,255,0.14)"/>
    <circle cx="1410" cy="778" r="5" fill="#a8efb4"/>
    <rect x="1432" y="772" width="248" height="10" rx="5" fill="rgba(255,255,255,0.11)"/>
    <circle cx="1410" cy="812" r="5" fill="#a8efb4"/>
    <rect x="1432" y="806" width="210" height="10" rx="5" fill="rgba(255,255,255,0.11)"/>
    <rect x="1400" y="842" width="384" height="52" rx="18" fill="url(#accent)"/>
    <text x="1432" y="875" class="cta">Call To Action</text>
  </g>
</svg>
