<svg xmlns="http://www.w3.org/2000/svg" width="1080" height="1920" viewBox="0 0 1080 1920" role="img" aria-labelledby="title desc">
  <title id="title">RiskHub clean infographic frame</title>
  <desc id="desc">Clean infographic frame with placeholders for a designer to fill in content, screenshots, and call to action.</desc>
  <defs>
    <linearGradient id="bg" x1="0" y1="0" x2="1" y2="1">
      <stop offset="0%" stop-color="#07101d"/>
      <stop offset="48%" stop-color="#0b1326"/>
      <stop offset="100%" stop-color="#121b2f"/>
    </linearGradient>
    <linearGradient id="panel" x1="0" y1="0" x2="1" y2="1">
      <stop offset="0%" stop-color="#1b2438"/>
      <stop offset="100%" stop-color="#151d31"/>
    </linearGradient>
    <linearGradient id="hero" x1="0" y1="0" x2="1" y2="0">
      <stop offset="0%" stop-color="#244da0" stop-opacity="0.95"/>
      <stop offset="100%" stop-color="#5b6c93" stop-opacity="0.88"/>
    </linearGradient>
    <linearGradient id="accent" x1="0" y1="0" x2="1" y2="1">
      <stop offset="0%" stop-color="#b5c4ff"/>
      <stop offset="100%" stop-color="#2f6ef6"/>
    </linearGradient>
    <linearGradient id="warm" x1="0" y1="0" x2="1" y2="0">
      <stop offset="0%" stop-color="#ffb59a"/>
      <stop offset="100%" stop-color="#ffb4ab"/>
    </linearGradient>
    <filter id="softShadow" x="-20%" y="-20%" width="140%" height="140%">
      <feDropShadow dx="0" dy="20" stdDeviation="30" flood-color="#030815" flood-opacity="0.48"/>
    </filter>
    <style>
      .eyebrow { fill: #90a7e7; font: 600 20px 'Inter', 'Segoe UI', sans-serif; letter-spacing: 0.24em; text-transform: uppercase; }
      .heroTitle { fill: #f3f6ff; font: 800 66px 'Inter', 'Segoe UI', sans-serif; }
      .sectionTitle { fill: #eff4ff; font: 700 32px 'Inter', 'Segoe UI', sans-serif; }
      .label { fill: #9eb3ea; font: 600 15px 'Inter', 'Segoe UI', sans-serif; letter-spacing: 0.18em; text-transform: uppercase; }
      .placeholder { fill: #c2cadc; font: 400 22px 'Inter', 'Segoe UI', sans-serif; }
      .small { fill: #aeb9cf; font: 400 18px 'Inter', 'Segoe UI', sans-serif; }
      .cta { fill: #08111f; font: 700 22px 'Inter', 'Segoe UI', sans-serif; }
    </style>
  </defs>

  <rect width="1080" height="1920" fill="url(#bg)"/>
  <circle cx="160" cy="180" r="220" fill="#14305f" opacity="0.18"/>
  <circle cx="910" cy="260" r="250" fill="#143b71" opacity="0.13"/>
  <circle cx="920" cy="1690" r="250" fill="#6f2911" opacity="0.08"/>

  <rect x="56" y="48" width="968" height="1824" rx="38" fill="rgba(255,255,255,0.02)" stroke="rgba(255,255,255,0.06)"/>

  <g filter="url(#softShadow)">
    <rect x="88" y="84" width="904" height="248" rx="30" fill="url(#panel)" stroke="rgba(181,196,255,0.15)"/>
    <rect x="88" y="84" width="904" height="248" rx="30" fill="url(#hero)"/>
    <text x="128" y="136" class="eyebrow">Hero Area</text>
    <text x="128" y="206" class="heroTitle">Project Name</text>
    <rect x="128" y="236" width="512" height="18" rx="9" fill="rgba(255,255,255,0.22)"/>
    <rect x="128" y="270" width="604" height="12" rx="6" fill="rgba(255,255,255,0.12)"/>
    <rect x="128" y="294" width="540" height="12" rx="6" fill="rgba(255,255,255,0.10)"/>

    <rect x="748" y="122" width="196" height="172" rx="22" fill="#0b1326" stroke="rgba(255,255,255,0.08)"/>
    <text x="774" y="160" class="label">Highlight Box</text>
    <rect x="774" y="188" width="128" height="14" rx="7" fill="rgba(181,196,255,0.24)"/>
    <rect x="774" y="220" width="102" height="14" rx="7" fill="rgba(255,255,255,0.12)"/>
    <rect x="774" y="252" width="138" height="14" rx="7" fill="rgba(255,181,154,0.20)"/>
  </g>

  <g filter="url(#softShadow)">
    <rect x="88" y="372" width="430" height="236" rx="28" fill="url(#panel)" stroke="rgba(255,255,255,0.08)"/>
    <text x="120" y="426" class="sectionTitle">01. Section Title</text>
    <rect x="120" y="464" width="240" height="14" rx="7" fill="rgba(181,196,255,0.16)"/>
    <circle cx="130" cy="514" r="5" fill="#ffb59a"/>
    <rect x="152" y="507" width="292" height="12" rx="6" fill="rgba(255,255,255,0.14)"/>
    <circle cx="130" cy="562" r="5" fill="#ffb59a"/>
    <rect x="152" y="555" width="266" height="12" rx="6" fill="rgba(255,255,255,0.11)"/>
    <circle cx="130" cy="610" r="5" fill="#ffb59a"/>
    <rect x="152" y="603" width="306" height="12" rx="6" fill="rgba(255,255,255,0.11)"/>
  </g>

  <g filter="url(#softShadow)">
    <rect x="562" y="372" width="430" height="236" rx="28" fill="url(#panel)" stroke="rgba(255,255,255,0.08)"/>
    <text x="594" y="426" class="sectionTitle">02. Section Title</text>
    <rect x="594" y="470" width="366" height="44" rx="14" fill="rgba(26,86,219,0.12)" stroke="rgba(181,196,255,0.12)"/>
    <rect x="614" y="486" width="238" height="12" rx="6" fill="rgba(255,255,255,0.18)"/>
    <rect x="594" y="528" width="366" height="44" rx="14" fill="rgba(26,86,219,0.10)" stroke="rgba(181,196,255,0.10)"/>
    <rect x="614" y="544" width="272" height="12" rx="6" fill="rgba(255,255,255,0.14)"/>
    <rect x="594" y="586" width="366" height="44" rx="14" fill="rgba(255,181,154,0.10)" stroke="rgba(255,181,154,0.10)"/>
    <rect x="614" y="602" width="220" height="12" rx="6" fill="rgba(255,255,255,0.14)"/>
  </g>

  <text x="88" y="676" class="sectionTitle">03. Feature Grid / Screenshots</text>

  <g filter="url(#softShadow)">
    <rect x="88" y="708" width="430" height="220" rx="28" fill="url(#panel)" stroke="rgba(255,255,255,0.08)"/>
    <text x="118" y="756" class="label">Card 01</text>
    <rect x="118" y="780" width="190" height="14" rx="7" fill="rgba(255,255,255,0.18)"/>
    <rect x="118" y="812" width="234" height="12" rx="6" fill="rgba(255,255,255,0.10)"/>
    <rect x="118" y="846" width="370" height="58" rx="16" fill="#0b1326" stroke="rgba(255,255,255,0.08)"/>
    <rect x="138" y="866" width="156" height="14" rx="7" fill="rgba(181,196,255,0.22)"/>
    <rect x="138" y="890" width="210" height="10" rx="5" fill="rgba(255,255,255,0.08)"/>
    <rect x="382" y="864" width="86" height="34" rx="17" fill="rgba(47,110,246,0.24)"/>
  </g>

  <g filter="url(#softShadow)">
    <rect x="562" y="708" width="430" height="220" rx="28" fill="url(#panel)" stroke="rgba(255,255,255,0.08)"/>
    <text x="592" y="756" class="label">Card 02</text>
    <rect x="592" y="780" width="210" height="14" rx="7" fill="rgba(255,255,255,0.18)"/>
    <rect x="592" y="812" width="250" height="12" rx="6" fill="rgba(255,255,255,0.10)"/>
    <rect x="592" y="846" width="370" height="58" rx="16" fill="#0b1326" stroke="rgba(255,255,255,0.08)"/>
    <circle cx="636" cy="875" r="24" fill="none" stroke="url(#accent)" stroke-width="7"/>
    <rect x="686" y="866" width="116" height="12" rx="6" fill="rgba(255,255,255,0.14)"/>
    <rect x="686" y="890" width="174" height="10" rx="5" fill="rgba(255,255,255,0.08)"/>
    <rect x="894" y="864" width="48" height="18" rx="9" fill="rgba(168,239,180,0.18)"/>
  </g>

  <g filter="url(#softShadow)">
    <rect x="88" y="956" width="430" height="220" rx="28" fill="url(#panel)" stroke="rgba(255,255,255,0.08)"/>
    <text x="118" y="1004" class="label">Card 03</text>
    <rect x="118" y="1028" width="170" height="14" rx="7" fill="rgba(255,255,255,0.18)"/>
    <rect x="118" y="1060" width="282" height="12" rx="6" fill="rgba(255,255,255,0.10)"/>
    <rect x="118" y="1094" width="370" height="58" rx="16" fill="#0b1326" stroke="rgba(255,255,255,0.08)"/>
    <rect x="136" y="1110" width="8" height="38" rx="4" fill="url(#warm)"/>
    <rect x="162" y="1114" width="182" height="12" rx="6" fill="rgba(255,255,255,0.14)"/>
    <rect x="162" y="1136" width="246" height="10" rx="5" fill="rgba(255,255,255,0.08)"/>
    <rect x="420" y="1112" width="48" height="18" rx="9" fill="rgba(255,181,154,0.18)"/>
  </g>

  <g filter="url(#softShadow)">
    <rect x="562" y="956" width="430" height="220" rx="28" fill="url(#panel)" stroke="rgba(255,255,255,0.08)"/>
    <text x="592" y="1004" class="label">Card 04 / Screenshot</text>
    <rect x="592" y="1028" width="248" height="14" rx="7" fill="rgba(255,255,255,0.18)"/>
    <rect x="592" y="1060" width="224" height="12" rx="6" fill="rgba(255,255,255,0.10)"/>
    <rect x="592" y="1094" width="370" height="58" rx="16" fill="#091122" stroke="rgba(255,255,255,0.08)"/>
    <circle cx="734" cy="1124" r="28" fill="#31394d" stroke="#ffb4ab" stroke-width="4"/>
    <circle cx="668" cy="1108" r="15" fill="#31394d" stroke="#ffb59a" stroke-width="3"/>
    <circle cx="798" cy="1104" r="14" fill="#31394d" stroke="#ffb59a" stroke-width="3"/>
    <circle cx="794" cy="1148" r="14" fill="#31394d" stroke="#ffb59a" stroke-width="3"/>
    <line x1="683" y1="1112" x2="709" y2="1120" stroke="#ffb4ab" stroke-width="4" stroke-linecap="round"/>
    <line x1="749" y1="1111" x2="781" y2="1106" stroke="#ffb4ab" stroke-width="4" stroke-linecap="round"/>
    <line x1="748" y1="1136" x2="781" y2="1144" stroke="#ffb4ab" stroke-width="4" stroke-linecap="round"/>
  </g>

  <text x="88" y="1248" class="sectionTitle">04. Workflow / Process</text>

  <g filter="url(#softShadow)">
    <rect x="88" y="1280" width="904" height="232" rx="28" fill="url(#panel)" stroke="rgba(255,255,255,0.08)"/>
    <circle cx="162" cy="1402" r="28" fill="url(#accent)"/>
    <circle cx="342" cy="1402" r="28" fill="url(#accent)"/>
    <circle cx="522" cy="1402" r="28" fill="url(#accent)"/>
    <circle cx="702" cy="1402" r="28" fill="url(#accent)"/>
    <circle cx="882" cy="1402" r="28" fill="url(#accent)"/>
    <text x="154" y="1411" class="cta">1</text>
    <text x="334" y="1411" class="cta">2</text>
    <text x="514" y="1411" class="cta">3</text>
    <text x="694" y="1411" class="cta">4</text>
    <text x="874" y="1411" class="cta">5</text>
    <line x1="190" y1="1402" x2="314" y2="1402" stroke="rgba(181,196,255,0.40)" stroke-width="4" stroke-linecap="round"/>
    <line x1="370" y1="1402" x2="494" y2="1402" stroke="rgba(181,196,255,0.40)" stroke-width="4" stroke-linecap="round"/>
    <line x1="550" y1="1402" x2="674" y2="1402" stroke="rgba(181,196,255,0.40)" stroke-width="4" stroke-linecap="round"/>
    <line x1="730" y1="1402" x2="854" y2="1402" stroke="rgba(181,196,255,0.40)" stroke-width="4" stroke-linecap="round"/>
    <rect x="106" y="1336" width="112" height="10" rx="5" fill="rgba(255,255,255,0.16)"/>
    <rect x="286" y="1336" width="112" height="10" rx="5" fill="rgba(255,255,255,0.16)"/>
    <rect x="466" y="1336" width="112" height="10" rx="5" fill="rgba(255,255,255,0.16)"/>
    <rect x="646" y="1336" width="112" height="10" rx="5" fill="rgba(255,255,255,0.16)"/>
    <rect x="826" y="1336" width="112" height="10" rx="5" fill="rgba(255,255,255,0.16)"/>
    <rect x="106" y="1450" width="100" height="10" rx="5" fill="rgba(255,255,255,0.10)"/>
    <rect x="286" y="1450" width="120" height="10" rx="5" fill="rgba(255,255,255,0.10)"/>
    <rect x="466" y="1450" width="136" height="10" rx="5" fill="rgba(255,255,255,0.10)"/>
    <rect x="646" y="1450" width="132" height="10" rx="5" fill="rgba(255,255,255,0.10)"/>
    <rect x="826" y="1450" width="112" height="10" rx="5" fill="rgba(255,255,255,0.10)"/>
  </g>

  <text x="88" y="1584" class="sectionTitle">05. Value / CTA</text>

  <g filter="url(#softShadow)">
    <rect x="88" y="1616" width="904" height="220" rx="28" fill="url(#panel)" stroke="rgba(255,255,255,0.08)"/>
    <rect x="120" y="1660" width="214" height="14" rx="7" fill="rgba(255,255,255,0.18)"/>
    <circle cx="132" cy="1710" r="5" fill="#a8efb4"/>
    <rect x="154" y="1703" width="304" height="12" rx="6" fill="rgba(255,255,255,0.14)"/>
    <circle cx="132" cy="1754" r="5" fill="#a8efb4"/>
    <rect x="154" y="1747" width="338" height="12" rx="6" fill="rgba(255,255,255,0.11)"/>
    <circle cx="132" cy="1798" r="5" fill="#a8efb4"/>
    <rect x="154" y="1791" width="286" height="12" rx="6" fill="rgba(255,255,255,0.11)"/>

    <rect x="670" y="1660" width="278" height="126" rx="24" fill="url(#accent)"/>
    <text x="700" y="1706" class="cta">Call To Action</text>
    <rect x="700" y="1730" width="136" height="16" rx="8" fill="rgba(8,17,31,0.22)"/>
    <rect x="700" y="1760" width="170" height="16" rx="8" fill="rgba(8,17,31,0.18)"/>
    <text x="120" y="1820" class="label">Footer / team / github / demo link / social handle</text>
  </g>
</svg>
